<svg xmlns="http://www.w3.org/2000/svg" viewBox="0 0 800 400">
  <defs>
    <linearGradient id="sky" x1="0%" y1="0%" x2="0%" y2="100%">
      <stop offset="0%" style="stop-color:#2d1b4e;stop-opacity:1"/>
      <stop offset="100%" style="stop-color:#4a3f6b;stop-opacity:1"/>
    </linearGradient>
    <linearGradient id="soil" x1="0%" y1="0%" x2="0%" y2="100%">
      <stop offset="0%" style="stop-color:#3d2b1f;stop-opacity:1"/>
      <stop offset="60%" style="stop-color:#2a1d14;stop-opacity:1"/>
      <stop offset="100%" style="stop-color:#1a1008;stop-opacity:1"/>
    </linearGradient>
  </defs>
  <rect width="800" height="400" fill="url(#sky)"/>
  <circle cx="120" cy="60" r="1.5" fill="#e8d5b7" opacity="0.6"/>
  <circle cx="340" cy="40" r="1" fill="#e8d5b7" opacity="0.4"/>
  <circle cx="560" cy="80" r="1.5" fill="#e8d5b7" opacity="0.5"/>
  <circle cx="680" cy="35" r="1" fill="#e8d5b7" opacity="0.3"/>
  <circle cx="200" cy="90" r="1" fill="#e8d5b7" opacity="0.4"/>
  <circle cx="450" cy="55" r="1.2" fill="#e8d5b7" opacity="0.5"/>
  <circle cx="750" cy="70" r="1" fill="#e8d5b7" opacity="0.3"/>
  <path d="M0 220 Q200 210 400 215 Q600 220 800 212 L800 400 L0 400 Z" fill="url(#soil)"/>
  <line x1="267" y1="210" x2="267" y2="400" stroke="#4a3520" stroke-width="1" opacity="0.4"/>
  <line x1="533" y1="212" x2="533" y2="400" stroke="#4a3520" stroke-width="1" opacity="0.4"/>
  <g opacity="0.6">
    <line x1="30" y1="250" x2="240" y2="248" stroke="#5c7a3a" stroke-width="2"/>
    <line x1="30" y1="275" x2="240" y2="273" stroke="#5c7a3a" stroke-width="2"/>
    <line x1="30" y1="300" x2="240" y2="298" stroke="#5c7a3a" stroke-width="2"/>
    <line x1="30" y1="325" x2="240" y2="323" stroke="#5c7a3a" stroke-width="2"/>
    <line x1="30" y1="350" x2="240" y2="348" stroke="#5c7a3a" stroke-width="2"/>
  </g>
  <g opacity="0.5">
    <path d="M300 260 Q305 240 308 250" stroke="#7a9a4a" stroke-width="1" fill="none"/>
    <path d="M350 270 Q352 248 355 258" stroke="#6b8a3f" stroke-width="1" fill="none"/>
    <path d="M400 255 Q403 235 406 248" stroke="#7a9a4a" stroke-width="1" fill="none"/>
    <path d="M420 268 Q424 250 427 260" stroke="#5c7a3a" stroke-width="1" fill="none"/>
    <path d="M470 262 Q472 242 475 255" stroke="#6b8a3f" stroke-width="1" fill="none"/>
    <path d="M320 280 Q323 268 325 275" stroke="#5c7a3a" stroke-width="1" fill="none"/>
    <path d="M380 275 Q383 260 385 270" stroke="#7a9a4a" stroke-width="1" fill="none"/>
    <path d="M450 272 Q453 258 456 268" stroke="#6b8a3f" stroke-width="1" fill="none"/>
    <path d="M500 258 Q503 240 505 252" stroke="#5c7a3a" stroke-width="1" fill="none"/>
  </g>
  <g opacity="0.3">
    <path d="M280 320 Q350 340 400 325 Q450 310 520 330" stroke="#c4956a" stroke-width="0.8" fill="none"/>
    <path d="M300 350 Q370 360 420 345 Q470 330 530 355" stroke="#c4956a" stroke-width="0.6" fill="none"/>
    <path d="M290 375 Q380 385 440 370 Q500 355 530 380" stroke="#c4956a" stroke-width="0.5" fill="none"/>
    <circle cx="350" cy="338" r="3" fill="#c4956a" opacity="0.5"/>
    <circle cx="420" cy="328" r="2.5" fill="#c4956a" opacity="0.4"/>
    <circle cx="470" cy="345" r="2" fill="#c4956a" opacity="0.4"/>
    <circle cx="380" cy="360" r="2.5" fill="#c4956a" opacity="0.3"/>
  </g>
  <g opacity="0.6">
    <line x1="560" y1="248" x2="770" y2="250" stroke="#5c7a3a" stroke-width="2"/>
    <line x1="560" y1="273" x2="770" y2="275" stroke="#5c7a3a" stroke-width="2"/>
    <line x1="560" y1="298" x2="770" y2="300" stroke="#5c7a3a" stroke-width="2"/>
    <line x1="560" y1="323" x2="770" y2="325" stroke="#5c7a3a" stroke-width="2"/>
    <line x1="560" y1="348" x2="770" y2="350" stroke="#5c7a3a" stroke-width="2"/>
  </g>
  <circle cx="650" cy="100" r="30" fill="#e8d5b7" opacity="0.15"/>
  <circle cx="660" cy="95" r="28" fill="url(#sky)"/>
  <circle cx="650" cy="100" r="30" fill="none" stroke="#e8d5b7" stroke-width="0.5" opacity="0.3"/>
</svg>
