<svg xmlns="http://www.w3.org/2000/svg" viewBox="0 0 800 400">
  <defs>
    <linearGradient id="bg" x1="0%" y1="0%" x2="100%" y2="100%">
      <stop offset="0%" style="stop-color:#0a1628"/>
      <stop offset="100%" style="stop-color:#1a2744"/>
    </linearGradient>
    <linearGradient id="ridge" x1="0%" y1="0%" x2="0%" y2="100%">
      <stop offset="0%" style="stop-color:#4a6741"/>
      <stop offset="100%" style="stop-color:#2d3f2a"/>
    </linearGradient>
    <linearGradient id="waterLeft" x1="0%" y1="0%" x2="0%" y2="100%">
      <stop offset="0%" style="stop-color:#5b8fb9;stop-opacity:0.9"/>
      <stop offset="100%" style="stop-color:#2a5f8f;stop-opacity:0.6"/>
    </linearGradient>
    <linearGradient id="waterRight" x1="0%" y1="0%" x2="0%" y2="100%">
      <stop offset="0%" style="stop-color:#7b6fb0;stop-opacity:0.9"/>
      <stop offset="100%" style="stop-color:#4a3f7a;stop-opacity:0.6"/>
    </linearGradient>
  </defs>
  <rect width="800" height="400" fill="url(#bg)"/>
  <g opacity="0.3">
    <circle cx="120" cy="30" r="1.2" fill="#7eb8da"/>
    <circle cx="250" cy="55" r="1" fill="#7eb8da"/>
    <circle cx="380" cy="20" r="1.5" fill="#e0e0e0"/>
    <circle cx="520" cy="45" r="1" fill="#b09fd0"/>
    <circle cx="650" cy="25" r="1.3" fill="#b09fd0"/>
    <circle cx="700" cy="60" r="1" fill="#b09fd0"/>
    <circle cx="80" cy="70" r="1" fill="#7eb8da"/>
    <circle cx="190" cy="40" r="0.8" fill="#7eb8da"/>
    <circle cx="460" cy="35" r="1.1" fill="#e0e0e0"/>
    <circle cx="580" cy="15" r="0.9" fill="#b09fd0"/>
  </g>
  <path d="M0,280 Q50,260 100,250 Q150,230 200,210 Q250,185 300,165 Q330,150 360,140 Q380,132 400,125 Q420,132 440,140 Q470,150 500,165 Q550,185 600,210 Q650,230 700,250 Q750,260 800,280 L800,400 L0,400 Z" fill="url(#ridge)" opacity="0.85"/>
  <path d="M0,310 Q100,290 200,275 Q300,250 400,240 Q500,250 600,275 Q700,290 800,310 L800,400 L0,400 Z" fill="#1e2e1c" opacity="0.5"/>
  <g stroke="url(#waterLeft)" fill="none" stroke-linecap="round">
    <path d="M390,135 Q370,160 350,180 Q320,210 280,240 Q230,275 170,310 Q120,340 60,370" stroke-width="1.5" opacity="0.8"/>
    <path d="M340,170 Q310,200 270,225 Q220,255 170,310" stroke-width="1.2" opacity="0.6"/>
    <path d="M300,190 Q260,220 210,260 Q160,300 100,350" stroke-width="1" opacity="0.5"/>
    <path d="M200,230 Q150,270 100,310 Q60,340 20,380" stroke-width="1.3" opacity="0.6"/>
    <path d="M360,150 Q340,175 320,195" stroke-width="0.7" opacity="0.4"/>
    <path d="M250,220 Q220,250 190,280" stroke-width="0.7" opacity="0.4"/>
  </g>
  <g stroke="url(#waterRight)" fill="none" stroke-linecap="round">
    <path d="M410,135 Q430,160 450,180 Q480,210 520,240 Q570,275 630,310 Q680,340 740,370" stroke-width="1.5" opacity="0.8"/>
    <path d="M460,170 Q490,200 530,225 Q580,255 630,310" stroke-width="1.2" opacity="0.6"/>
    <path d="M500,190 Q540,220 590,260 Q640,300 700,350" stroke-width="1" opacity="0.5"/>
    <path d="M600,230 Q650,270 700,310 Q740,340 780,380" stroke-width="1.3" opacity="0.6"/>
    <path d="M440,150 Q460,175 480,195" stroke-width="0.7" opacity="0.4"/>
    <path d="M550,220 Q580,250 610,280" stroke-width="0.7" opacity="0.4"/>
  </g>
  <line x1="400" y1="80" x2="400" y2="125" stroke="#e0d8c0" stroke-width="0.8" stroke-dasharray="3,4" opacity="0.5"/>
  <circle cx="400" cy="125" r="2.5" fill="#e0d8c0" opacity="0.6"/>
  <path d="M400,105 Q403,112 400,118 Q397,112 400,105 Z" fill="#c8dce8" opacity="0.7"/>
  <text x="150" y="385" font-family="Georgia, serif" font-size="13" fill="#5b8fb9" opacity="0.6" text-anchor="middle">one ocean</text>
  <text x="650" y="385" font-family="Georgia, serif" font-size="13" fill="#7b6fb0" opacity="0.6" text-anchor="middle">another ocean</text>
</svg>
