<svg xmlns="http://www.w3.org/2000/svg" viewBox="0 0 800 400">
  <defs>
    <linearGradient id="zg_bg" x1="0" y1="0" x2="0" y2="1">
      <stop offset="0" stop-color="#0a1020"/>
      <stop offset="0.55" stop-color="#0d1526"/>
      <stop offset="1" stop-color="#05080f"/>
    </linearGradient>
    <linearGradient id="zg_pulse" x1="0" y1="0" x2="0" y2="1">
      <stop offset="0" stop-color="#ffd27a" stop-opacity="0"/>
      <stop offset="0.45" stop-color="#ffcf6e" stop-opacity="0.16"/>
      <stop offset="1" stop-color="#f2a83a" stop-opacity="0"/>
    </linearGradient>
    <filter id="zg_soft" x="-20%" y="-20%" width="140%" height="140%">
      <feGaussianBlur stdDeviation="1.0"/>
    </filter>
  </defs>
  <rect width="800" height="400" fill="url(#zg_bg)"/>
  <rect x="74" y="0" width="52" height="400" fill="url(#zg_pulse)"/>
  <line x1="100" y1="0" x2="100" y2="400" stroke="#ffd27a" stroke-width="0.6" stroke-opacity="0.3"/>
  <rect x="274" y="0" width="52" height="400" fill="url(#zg_pulse)"/>
  <line x1="300" y1="0" x2="300" y2="400" stroke="#ffd27a" stroke-width="0.6" stroke-opacity="0.3"/>
  <rect x="474" y="0" width="52" height="400" fill="url(#zg_pulse)"/>
  <line x1="500" y1="0" x2="500" y2="400" stroke="#ffd27a" stroke-width="0.6" stroke-opacity="0.3"/>
  <rect x="674" y="0" width="52" height="400" fill="url(#zg_pulse)"/>
  <line x1="700" y1="0" x2="700" y2="400" stroke="#ffd27a" stroke-width="0.6" stroke-opacity="0.3"/>
  <path d="M 60.0 326.2 L 64.0 324.5 L 68.0 322.6 L 72.0 320.3 L 76.0 317.9 L 80.0 315.2 L 84.0 312.4 L 88.0 309.4 L 92.0 306.3 L 96.0 303.2 L 100.0 300.0 L 104.0 296.8 L 108.0 293.7 L 112.0 290.6 L 116.0 287.6 L 120.0 284.8 L 124.0 282.1 L 128.0 279.7 L 132.0 277.4 L 136.0 275.5 L 140.0 273.8 L 144.0 272.4 L 148.0 271.3 L 152.0 270.5 L 156.0 270.1 L 160.0 270.0 L 164.0 270.3 L 168.0 270.9 L 172.0 271.8 L 176.0 273.0 L 180.0 274.6 L 184.0 276.4 L 188.0 278.5 L 192.0 280.9 L 196.0 283.4 L 200.0 286.2 L 204.0 289.1 L 208.0 292.1 L 212.0 295.2 L 216.0 298.4 L 220.0 301.6 L 224.0 304.8 L 228.0 307.9 L 232.0 310.9 L 236.0 313.8 L 240.0 316.6 L 244.0 319.1 L 248.0 321.5 L 252.0 323.6 L 256.0 325.4 L 260.0 327.0 L 264.0 328.2 L 268.0 329.1 L 272.0 329.7 L 276.0 330.0 L 280.0 329.9 L 284.0 329.5 L 288.0 328.7 L 292.0 327.6 L 296.0 326.2 L 300.0 324.5 L 304.0 322.6 L 308.0 320.3 L 312.0 317.9 L 316.0 315.2 L 320.0 312.4 L 324.0 309.4 L 328.0 306.3 L 332.0 303.2 L 336.0 300.0 L 340.0 296.8 L 344.0 293.7 L 348.0 290.6 L 352.0 287.6 L 356.0 284.8 L 360.0 282.1 L 364.0 279.7 L 368.0 277.4 L 372.0 275.5 L 376.0 273.8 L 380.0 272.4 L 384.0 271.3 L 388.0 270.5 L 392.0 270.1 L 396.0 270.0 L 400.0 270.3 L 404.0 270.9 L 408.0 271.8 L 412.0 273.0 L 416.0 274.6 L 420.0 276.4 L 424.0 278.5 L 428.0 280.9 L 432.0 283.4 L 436.0 286.2 L 440.0 289.1 L 444.0 292.1 L 448.0 295.2 L 452.0 298.4 L 456.0 301.6 L 460.0 304.8 L 464.0 307.9 L 468.0 310.9 L 472.0 313.8 L 476.0 316.6 L 480.0 319.1 L 484.0 321.5 L 488.0 323.6 L 492.0 325.4 L 496.0 327.0 L 500.0 328.2 L 504.0 329.1 L 508.0 329.7 L 512.0 330.0 L 516.0 329.9 L 520.0 329.5 L 524.0 328.7 L 528.0 327.6 L 532.0 326.2 L 536.0 324.5 L 540.0 322.6 L 544.0 320.3 L 548.0 317.9 L 552.0 315.2 L 556.0 312.4 L 560.0 309.4 L 564.0 306.3 L 568.0 303.2 L 572.0 300.0 L 576.0 296.8 L 580.0 293.7 L 584.0 290.6 L 588.0 287.6 L 592.0 284.8 L 596.0 282.1 L 600.0 279.7 L 604.0 277.4 L 608.0 275.5 L 612.0 273.8 L 616.0 272.4 L 620.0 271.3 L 624.0 270.5 L 628.0 270.1 L 632.0 270.0 L 636.0 270.3 L 640.0 270.9 L 644.0 271.8 L 648.0 273.0 L 652.0 274.6 L 656.0 276.4 L 660.0 278.5 L 664.0 280.9 L 668.0 283.4 L 672.0 286.2 L 676.0 289.1 L 680.0 292.1 L 684.0 295.2 L 688.0 298.4 L 692.0 301.6 L 696.0 304.8 L 700.0 307.9 L 704.0 310.9 L 708.0 313.8 L 712.0 316.6 L 716.0 319.1 L 720.0 321.5 L 724.0 323.6 L 728.0 325.4 L 732.0 327.0 L 736.0 328.2 L 740.0 329.1 L 744.0 329.7 L 748.0 330.0 L 752.0 329.9 L 756.0 329.5 L 760.0 328.7" fill="none" stroke="#5a6b8a" stroke-width="1.2" stroke-opacity="0.5" filter="url(#zg_soft)"/>
  <path d="M 60.0 182.3 L 64.0 180.8 L 68.0 178.7 L 72.0 176.2 L 76.0 173.3 L 80.0 170.0 L 84.0 166.4 L 88.0 162.5 L 92.0 158.5 L 96.0 154.3 L 100.0 150.0 L 104.0 145.7 L 108.0 141.5 L 112.0 137.5 L 116.0 133.6 L 120.0 130.0 L 124.0 126.7 L 128.0 123.8 L 132.0 121.3 L 136.0 119.2 L 140.0 117.7 L 144.0 116.6 L 148.0 116.1 L 152.0 116.1 L 156.0 116.6 L 160.0 117.7 L 164.0 119.2 L 168.0 121.3 L 172.0 123.8 L 176.0 126.7 L 180.0 130.0 L 184.0 133.6 L 188.0 137.5 L 192.0 141.5 L 196.0 145.7 L 200.0 150.0 L 204.0 154.3 L 208.0 158.5 L 212.0 162.5 L 216.0 166.4 L 220.0 170.0 L 224.0 173.3 L 228.0 176.2 L 232.0 178.7 L 236.0 180.8 L 240.0 182.3 L 244.0 183.4 L 248.0 183.9 L 252.0 183.9 L 256.0 183.4 L 260.0 182.3 L 264.0 180.8 L 268.0 178.7 L 272.0 176.2 L 276.0 173.3 L 280.0 170.0 L 284.0 166.4 L 288.0 162.5 L 292.0 158.5 L 296.0 154.3 L 300.0 150.0 L 304.0 145.7 L 308.0 141.5 L 312.0 137.5 L 316.0 133.6 L 320.0 130.0 L 324.0 126.7 L 328.0 123.8 L 332.0 121.3 L 336.0 119.2 L 340.0 117.7 L 344.0 116.6 L 348.0 116.1 L 352.0 116.1 L 356.0 116.6 L 360.0 117.7 L 364.0 119.2 L 368.0 121.3 L 372.0 123.8 L 376.0 126.7 L 380.0 130.0 L 384.0 133.6 L 388.0 137.5 L 392.0 141.5 L 396.0 145.7 L 400.0 150.0 L 404.0 154.3 L 408.0 158.5 L 412.0 162.5 L 416.0 166.4 L 420.0 170.0 L 424.0 173.3 L 428.0 176.2 L 432.0 178.7 L 436.0 180.8 L 440.0 182.3 L 444.0 183.4 L 448.0 183.9 L 452.0 183.9 L 456.0 183.4 L 460.0 182.3 L 464.0 180.8 L 468.0 178.7 L 472.0 176.2 L 476.0 173.3 L 480.0 170.0 L 484.0 166.4 L 488.0 162.5 L 492.0 158.5 L 496.0 154.3 L 500.0 150.0 L 504.0 145.7 L 508.0 141.5 L 512.0 137.5 L 516.0 133.6 L 520.0 130.0 L 524.0 126.7 L 528.0 123.8 L 532.0 121.3 L 536.0 119.2 L 540.0 117.7 L 544.0 116.6 L 548.0 116.1 L 552.0 116.1 L 556.0 116.6 L 560.0 117.7 L 564.0 119.2 L 568.0 121.3 L 572.0 123.8 L 576.0 126.7 L 580.0 130.0 L 584.0 133.6 L 588.0 137.5 L 592.0 141.5 L 596.0 145.7 L 600.0 150.0 L 604.0 154.3 L 608.0 158.5 L 612.0 162.5 L 616.0 166.4 L 620.0 170.0 L 624.0 173.3 L 628.0 176.2 L 632.0 178.7 L 636.0 180.8 L 640.0 182.3 L 644.0 183.4 L 648.0 183.9 L 652.0 183.9 L 656.0 183.4 L 660.0 182.3 L 664.0 180.8 L 668.0 178.7 L 672.0 176.2 L 676.0 173.3 L 680.0 170.0 L 684.0 166.4 L 688.0 162.5 L 692.0 158.5 L 696.0 154.3 L 700.0 150.0 L 704.0 145.7 L 708.0 141.5 L 712.0 137.5 L 716.0 133.6 L 720.0 130.0 L 724.0 126.7 L 728.0 123.8 L 732.0 121.3 L 736.0 119.2 L 740.0 117.7 L 744.0 116.6 L 748.0 116.1 L 752.0 116.1 L 756.0 116.6 L 760.0 117.7" fill="none" stroke="#7fd4ff" stroke-width="1.8" stroke-opacity="0.9" filter="url(#zg_soft)"/>
  <circle cx="100" cy="150.0" r="3.2" fill="#eaf6ff" fill-opacity="0.9"/>
  <circle cx="300" cy="150.0" r="3.2" fill="#eaf6ff" fill-opacity="0.9"/>
  <circle cx="500" cy="150.0" r="3.2" fill="#eaf6ff" fill-opacity="0.9"/>
  <circle cx="700" cy="150.0" r="3.2" fill="#eaf6ff" fill-opacity="0.9"/>
</svg>